<?xml version="1.0" encoding="UTF-8" standalone="no"?>
<svg width="634px" height="350px" viewBox="0 0 634 350" version="1.1" xmlns="http://www.w3.org/2000/svg" xmlns:xlink="http://www.w3.org/1999/xlink" xmlns:sketch="http://www.bohemiancoding.com/sketch/ns">
    <!-- Generator: Sketch 3.0.4 (8053) - http://www.bohemiancoding.com/sketch -->
    <title>Slice 2</title>
    <desc>Created with Sketch.</desc>
    <defs></defs>
    <g id="Page-1" stroke="none" stroke-width="1" fill="none" fill-rule="evenodd" sketch:type="MSPage">
        <path d="M100.563235,176.447902 C96.52018,177.107318 92.3588629,177.594083 88.1041631,177.8916 C45.130889,180.896584 8.90438601,163.457809 7.19000408,138.941005 C5.49443868,114.69329 38.1925918,92.6034029 80.4843292,89.2142996 C98.8937032,86.9771382 132.407112,84.3018133 170.269537,87.9218761 C194.13989,90.2041434 304.756096,97.0099857 391.681646,122.933596 C513.641318,159.305353 617.253258,215.755752 617.253258,215.755752 C617.253258,215.755752 450.688851,182.55466 359.986328,175.683593 C282.309149,169.799246 117.749737,175.797116 100.563235,176.447902 Z" id="Oval-1" stroke="#0E120C" stroke-width="4" sketch:type="MSShapeGroup"></path>
        <path d="M2,52.9974684 L2,253.997468" id="Line" stroke="#0E120C" stroke-width="2" stroke-linecap="square" sketch:type="MSShapeGroup"></path>
        <path d="M386.5,54.5 L5.103711,54.5" id="Line" stroke="#0E120C" stroke-linecap="square" sketch:type="MSShapeGroup"></path>
        <path id="Line-decoration-1" d="M5.5,54.5 C9.28,55.55 12.52,56.45 16.3,57.5 C16.3,55.4 16.3,53.6 16.3,51.5 C12.52,52.55 9.28,53.45 5.5,54.5 C5.5,54.5 5.5,54.5 5.5,54.5 Z" stroke="#0E120C" stroke-linecap="square"></path>
        <path d="M556.5,54.5 L628.564423,54.5" id="Line-3" stroke="#0E120C" stroke-linecap="square" sketch:type="MSShapeGroup"></path>
        <path id="Line-3-decoration-1" d="M628.5,54.5 C624.72,53.45 621.48,52.55 617.7,51.5 C617.7,53.6 617.7,55.4 617.7,57.5 C621.48,56.45 624.72,55.55 628.5,54.5 C628.5,54.5 628.5,54.5 628.5,54.5 Z" stroke="#0E120C" stroke-linecap="square"></path>
        <path d="M554.5,251.5 L626.564423,251.5" id="Line-4" stroke="#0E120C" stroke-linecap="square" fill="#000000" sketch:type="MSShapeGroup"></path>
        <path id="Line-4-decoration-1" d="M626.5,251.5 C622.72,250.45 619.48,249.55 615.7,248.5 C615.7,250.6 615.7,252.4 615.7,254.5 C619.48,253.45 622.72,252.55 626.5,251.5 C626.5,251.5 626.5,251.5 626.5,251.5 Z" stroke="#0E120C" stroke-linecap="square" fill="#000000"></path>
        <path d="M507.5,251.5 L433.331273,251.5" id="Line-5" stroke="#0E120C" stroke-linecap="square" fill="#000000" sketch:type="MSShapeGroup"></path>
        <path id="Line-5-decoration-1" d="M433.5,251.5 C437.28,252.55 440.52,253.45 444.3,254.5 C444.3,252.4 444.3,250.6 444.3,248.5 C440.52,249.55 437.28,250.45 433.5,251.5 C433.5,251.5 433.5,251.5 433.5,251.5 Z" stroke="#0E120C" stroke-linecap="square" fill="#000000"></path>
        <path d="M360.5,251.5 L428.469802,251.5" id="Line-6" stroke="#0E120C" stroke-linecap="square" fill="#000000" sketch:type="MSShapeGroup"></path>
        <path id="Line-6-decoration-1" d="M427.5,251.5 C423.72,250.45 420.48,249.55 416.7,248.5 C416.7,250.6 416.7,252.4 416.7,254.5 C420.48,253.45 423.72,252.55 427.5,251.5 C427.5,251.5 427.5,251.5 427.5,251.5 Z" stroke="#0E120C" stroke-linecap="square" fill="#000000"></path>
        <path d="M319.5,251.5 L193.496032,251.5" id="Line-8" stroke="#0E120C" stroke-linecap="square" fill="#000000" sketch:type="MSShapeGroup"></path>
        <path id="Line-8-decoration-1" d="M193.5,251.5 C197.28,252.55 200.52,253.45 204.3,254.5 C204.3,252.4 204.3,250.6 204.3,248.5 C200.52,249.55 197.28,250.45 193.5,251.5 C193.5,251.5 193.5,251.5 193.5,251.5 Z" stroke="#0E120C" stroke-linecap="square" fill="#000000"></path>
        <path d="M101.478262,251.5 L193.496032,251.5" id="Line-9" stroke="#0E120C" stroke-linecap="square" fill="#000000" sketch:type="MSShapeGroup"></path>
        <path id="Line-9-decoration-1" d="M193.478262,251.5 C189.698262,250.45 186.458262,249.55 182.678262,248.5 C182.678262,250.6 182.678262,252.4 182.678262,254.5 C186.458262,253.45 189.698262,252.55 193.478262,251.5 C193.478262,251.5 193.478262,251.5 193.478262,251.5 Z" stroke="#0E120C" stroke-linecap="square" fill="#000000"></path>
        <path d="M632,53.5 L632,253.5" id="Line-2" stroke="#0E120C" stroke-width="2" stroke-linecap="square" sketch:type="MSShapeGroup"></path>
        <text id="thrust" sketch:type="MSTextLayer" font-family="Noteworthy" font-size="50" font-weight="260" fill="#000000">
            <tspan x="422" y="64">thrust</tspan>
        </text>
        <text id="280" sketch:type="MSTextLayer" font-family="Noteworthy" font-size="12" font-weight="260" fill="#000000">
            <tspan x="80" y="51">280</tspan>
        </text>
        <text id="9/9" sketch:type="MSTextLayer" font-family="Noteworthy" font-size="12" font-weight="260" fill="#000000">
            <tspan x="528" y="257">9/9</tspan>
        </text>
        <text id="swift-v1" sketch:type="MSTextLayer" font-family="Noteworthy" font-size="12" font-weight="260" fill="#000000">
            <tspan x="321" y="257">swift v1</tspan>
        </text>
        <text id="necessary-for-lift" sketch:type="MSTextLayer" font-family="Noteworthy" font-size="9" font-weight="260" fill="#000000">
            <tspan x="38" y="256">necessary for lift</tspan>
        </text>
        <text id="o" sketch:type="MSTextLayer" font-family="Noteworthy" font-size="5" font-weight="260" fill="#000000">
            <tspan x="105" y="44">o</tspan>
        </text>
        <path d="M32.6793289,251.5 L7.49603176,251.5" id="Line-10" stroke="#0E120C" stroke-linecap="square" fill="#000000" sketch:type="MSShapeGroup"></path>
        <path id="Line-10-decoration-1" d="M7.67932892,251.5 C11.4593289,252.55 14.6993289,253.45 18.4793289,254.5 C18.4793289,252.4 18.4793289,250.6 18.4793289,248.5 C14.6993289,249.55 11.4593289,250.45 7.67932892,251.5 C7.67932892,251.5 7.67932892,251.5 7.67932892,251.5 Z" stroke="#0E120C" stroke-linecap="square" fill="#000000"></path>
    </g>
</svg>